<?xml version="1.0" encoding="utf-8"?>
<!-- Generator: Adobe Illustrator 26.5.0, SVG Export Plug-In . SVG Version: 6.00 Build 0)  -->
<svg version="1.1" id="Layer_1" xmlns="http://www.w3.org/2000/svg" xmlns:xlink="http://www.w3.org/1999/xlink" x="0px" y="0px"
	 viewBox="0 0 318.6 149.5" style="enable-background:new 0 0 318.6 149.5;" xml:space="preserve">
<style type="text/css">
	.st0{fill:#306391;}
	.st1{fill:#39308E;}
	.st2{fill:url(#SVGID_1_);}
	.st3{fill:#444444;}
	.st4{font-family:'Eurofurenceregular';}
	.st5{font-size:29.6039px;}
	.st6{letter-spacing:1;}
</style>
<g>
	<g>
		<g>
			<path class="st0" d="M21.4,24.9H4.6c-1,0-1.9,0.4-2.7,1.1c-0.8,0.8-1.1,1.7-1.1,2.7v50.6c0,1,0.4,1.9,1.1,2.7
				c0.8,0.8,1.7,1.1,2.7,1.1h16.9c8,0,14.9-2.9,20.5-8.5c5.7-5.7,8.5-12.6,8.5-20.6c0-8-2.9-14.9-8.5-20.5
				C36.3,27.7,29.4,24.9,21.4,24.9z M42.9,53.9c0,5.9-2.1,11-6.3,15.2s-9.3,6.3-15.2,6.3H8.3v-43h13.1c5.9,0,11,2.1,15.2,6.3
				S42.9,48.1,42.9,53.9z"/>
			<path class="st0" d="M89.5,27.5c-1.1-2.2-2.6-2.6-3.6-2.6c-1.1,0-2.6,0.5-3.6,2.6l-25,50c-0.3,0.6-0.5,1.2-0.5,1.8
				c0,1,0.4,1.9,1.2,2.7c0.8,0.7,1.7,1.1,2.7,1.1c1.5,0,2.6-0.7,3.3-2.1l7.4-14.8c0.1,0,0.3,0,0.5,0h28c0.2,0,0.3,0,0.5,0l7.4,14.8
				c0.7,1.4,1.8,2.1,3.3,2.1c1,0,1.9-0.4,2.7-1c0.8-0.7,1.2-1.6,1.2-2.6c0-0.6-0.2-1.3-0.5-1.8L89.5,27.5z M96.6,58.6H75.2
				l10.7-21.4L96.6,58.6z"/>
			<path class="st0" d="M155.2,24.9c-1.1,0-2.2,0.5-2.9,1.5l-16.6,21.4l-16.7-21.4c-0.8-1-1.8-1.5-2.9-1.5c-1,0-1.9,0.4-2.7,1.1
				c-0.8,0.8-1.2,1.7-1.2,2.7c0,0.8,0.3,1.6,0.9,2.3l18.9,24.3v24c0,2.4,1.4,3.8,3.8,3.8s3.8-1.4,3.8-3.8v-24L158.2,31
				c0.6-0.7,0.9-1.5,0.9-2.4c0-1-0.4-1.9-1.2-2.7C157.1,25.2,156.2,24.9,155.2,24.9z"/>
			<path class="st1" d="M213.3,28.7c0-2.4-1.4-3.8-3.9-3.8l-39.2,0c-2.4,0-3.8,1.4-3.8,3.8c0,2.4,1.4,3.7,3.8,3.7h31.6l-34.3,44.1
				c-0.8,1-1.1,1.9-1.1,2.8c0,2.4,1.4,3.8,4,3.8h39.2c2.4,0,3.8-1.4,3.8-3.8c0-2.4-1.4-3.8-3.8-3.8h-31.6l34.2-44
				C212.9,30.4,213.3,29.5,213.3,28.7z"/>
			<path class="st1" d="M256.5,32.4c2.4,0,3.8-1.4,3.8-3.8c0-2.4-1.4-3.8-3.8-3.8h-28.1c-1,0-1.9,0.4-2.7,1.1
				c-0.8,0.8-1.1,1.7-1.1,2.7v50.6c0,1,0.4,1.9,1.1,2.7c0.8,0.8,1.7,1.1,2.7,1.1h28.1c2.4,0,3.8-1.4,3.8-3.8c0-2.4-1.4-3.8-3.8-3.8
				h-24.3V57.8h18.7c2.4,0,3.8-1.4,3.8-3.8c0-2.4-1.4-3.8-3.8-3.8h-18.7V32.4H256.5z"/>
			<path class="st1" d="M314.8,24.9c-2.4,0-3.8,1.4-3.8,3.8v39.6l-32.3-41.5c-1-1.3-2.1-1.9-3.3-1.9c-2.4,0-3.8,1.4-3.8,3.8v50.5
				c0,2.4,1.4,3.8,3.8,3.8c2.4,0,3.8-1.4,3.8-3.8V39.7l32.3,41.5c1,1.2,2.1,1.8,3.3,1.8c2.4,0,3.9-1.4,3.9-3.8V28.7
				C318.6,26.3,317.2,24.9,314.8,24.9z"/>
		</g>
		<g>
			<g>
				<linearGradient id="SVGID_1_" gradientUnits="userSpaceOnUse" x1="133.6922" y1="9.1944" x2="184.4853" y2="9.1944">
					<stop  offset="0" style="stop-color:#306391"/>
					<stop  offset="1" style="stop-color:#39308E"/>
				</linearGradient>
				<path class="st2" d="M159.1,1.8c7.1,0,14,2.2,20.8,6.7c3,2,4.6,3.7,4.6,5c0,0.8-0.2,1.5-0.6,2c-0.4,0.6-0.8,0.9-1.4,0.9
					c-0.3,0-0.6-0.1-1-0.4c-4.3-3.1-8-5.2-10.8-6.4c-3.6-1.5-7.5-2.3-11.6-2.3c-4.1,0-8,0.8-11.6,2.3c-2.9,1.2-6.5,3.3-10.8,6.4
					c-0.4,0.3-0.7,0.4-1,0.4c-0.5,0-1-0.3-1.4-0.9c-0.4-0.6-0.6-1.3-0.6-2.1c0-1.4,1.5-3,4.6-5C145.1,4.1,152,1.8,159.1,1.8z"/>
			</g>
		</g>
		<g>
			<text transform="matrix(1 0 0 1 0 142.0271)" class="st3 st4 st5 st6">Daily Always comfortable</text>
		</g>
	</g>
</g>
</svg>
